:SAMPLES-PER-SECOND 30
:FULLY-SPECIFIED
:DEGREES
480
root  -67.9175 41.066 1.51734 177.373 -2.61147 179.159
RightUpLeg  -10.3295 -17.6309 -6.50984
RightLeg  22.4305 -6.66624 -3.26659
RightFoot  -4.40167 -0.16005 2.15924
RightToes  0.000482159 0.542163 -0.142577
Spine  24.8801 0.167906 -1.05204
Spine1  0.452517 -0.794345 3.59693
HEad  -18.2049 32.2306 -12.5168
LeftShoulder1  3.78718 -8.92889 -24.2241
LeftArm  -24.4389 16.1969 -12.1451
LeftForeArm  10.1181 -11.4792 -0.568411
LeftHand  -0.25398 0.0180481 5.50724
RightShoulder  1.90737 4.53968 17.0931
RightArm  -24.5839 -16.8945 13.7232
RightForeArm  -29.4493 6.4403 3.53706
RightHand  -6.79875 17.2268 -34.3099
LeftUpLeg  1.54759 6.83428 -0.902609
LeftLeg  11.6405 6.78332 -2.28514
LeftFoot  -9.74541 0.00660566 3.67228
LeftToes  1.06247e-005 4.65854e-005 -8.18501e-006
481
root  -67.9417 41.0524 1.42019 177.64 -2.48933 178.582
RightUpLeg  -9.50718 -13.7982 -7.87148
RightLeg  24.9323 -5.68599 -3.09776
RightFoot  -5.4431 -0.241322 3.94174
RightToes  0.000482159 0.542163 -0.142577
Spine  21.4785 0.400467 -1.96771
Spine1  0.527283 -0.653527 3.40533
HEad  -15.1736 32.9028 -10.7063
LeftShoulder1  3.07009 -7.70951 -20.9543
LeftArm  -25.0985 16.1538 -10.3829
LeftForeArm  11.8192 -12.4987 -0.564064
LeftHand  -0.25398 0.0180481 5.50724
RightShoulder  1.55633 3.74948 14.6313
RightArm  -23.4895 -16.2631 11.4457
RightForeArm  -30.3752 5.98213 3.74544
RightHand  -6.89199 17.4247 -34.466
LeftUpLeg  1.67235 5.92264 -1.70378
LeftLeg  11.0499 7.91649 -2.26663
LeftFoot  -9.58149 0.00130309 3.75488
LeftToes  1.06247e-005 4.65854e-005 -8.18501e-006
482
root  -67.9223 41.0278 1.29264 177.197 -2.33575 178.473
RightUpLeg  -7.05731 -11.0045 -8.56743
RightLeg  25.3444 -3.96995 -2.27342
RightFoot  -5.84741 -0.33411 6.13611
RightToes  0.000482159 0.542163 -0.142577
Spine  19.1575 0.548567 -2.35327
Spine1  0.527859 -0.483278 3.06131
HEad  -12.6067 33.3557 -9.24881
LeftShoulder1  2.40642 -6.31775 -17.8495
LeftArm  -25.3271 15.7047 -8.71714
LeftForeArm  12.2779 -12.9904 -0.629189
LeftHand  -0.25398 0.0180481 5.50724
RightShoulder  1.27676 3.12115 12.2251
RightArm  -22.4832 -15.2291 9.53487
RightForeArm  -30.3408 5.21229 3.86574
RightHand  -6.88981 17.4123 -34.4732
LeftUpLeg  2.32401 5.66948 -1.75843
LeftLeg  11.1558 8.27099 -2.20465
LeftFoot  -9.79363 0.0128162 3.56393
LeftToes  1.06247e-005 4.65854e-005 -8.18501e-006
483
root  -67.8766 40.9885 1.1377 176.794 -2.11137 178.278
RightUpLeg  -4.16069 -9.27997 -9.06604
RightLeg  24.066 -1.83479 -1.12022
RightFoot  -6.75518 -0.353318 7.66489
RightToes  0.000482159 0.542163 -0.142577
Spine  16.9333 0.681601 -2.5575
Spine1  0.70958 -0.228793 2.26739
HEad  -10.5489 33.636 -7.93011
LeftShoulder1  1.8107 -4.91934 -14.5752
LeftArm  -25.0504 14.9734 -7.38492
LeftForeArm  11.885 -13.0888 -0.773763
LeftHand  -0.25398 0.0180481 5.50724
RightShoulder  1.04272 2.45494 10.2483
RightArm  -21.995 -14.0821 7.97445
RightForeArm  -30.259 4.70154 3.92232
RightHand  -6.85994 17.23 -34.5925
LeftUpLeg  3.01287 5.46424 -1.78951
LeftLeg  11.2689 8.66317 -2.25735
LeftFoot  -10.1443 0.0261537 3.33177
LeftToes  1.06247e-005 4.65854e-005 -8.18501e-006
484
root  -67.8277 40.9894 0.961583 176.875 -1.78163 177.956
RightUpLeg  -1.63305 -9.07627 -9.4732
RightLeg  21.2093 -0.282524 -0.342771
RightFoot  -8.19918 -0.267289 7.62824
RightToes  0.000482159 0.542163 -0.142577
Spine  14.2132 0.864974 -2.57647
Spine1  1.26094 0.164218 1.42506
HEad  -8.93532 33.6752 -6.74693
LeftShoulder1  1.34133 -3.65148 -11.5438
LeftArm  -24.5663 13.965 -6.26092
LeftForeArm  11.4011 -12.9898 -0.944067
LeftHand  -0.25398 0.0180481 5.50724
RightShoulder  0.807953 1.56612 8.49448
RightArm  -21.8012 -12.8476 6.90812
RightForeArm  -30.018 4.28696 3.958
RightHand  -6.81527 17.1174 -34.5433
LeftUpLeg  3.61964 4.95255 -2.00273
LeftLeg  10.4661 9.46041 -2.51521
LeftFoot  -10.0949 0.0254054 3.24577
LeftToes  1.06247e-005 4.65854e-005 -8.18501e-006
485
root  -67.7759 41.0564 0.782476 177.115 -1.31184 177.88
RightUpLeg  0.58651 -10.0809 -9.521
RightLeg  17.2415 0.272047 -0.049942
RightFoot  -9.05 -0.181095 6.01355
RightToes  0.000482159 0.542163 -0.142577
Spine  11.5518 1.14356 -2.17918
Spine1  1.91574 0.688482 0.911904
HEad  -7.73925 33.5683 -5.86258
LeftShoulder1  0.998933 -2.52642 -9.10769
LeftArm  -24.5619 12.8788 -5.44617
LeftForeArm  11.5008 -12.8676 -0.975467
LeftHand  -0.25398 0.0180481 5.50724
RightShoulder  0.594984 0.630183 6.77062
RightArm  -21.5813 -11.6287 6.22567
RightForeArm  -28.8957 3.70078 3.96173
RightHand  -6.67949 17.0811 -33.9542
LeftUpLeg  4.40761 4.3976 -2.01648
LeftLeg  8.86514 10.3524 -2.8609
LeftFoot  -9.57388 0.00782718 3.22697
LeftToes  1.06247e-005 4.65854e-005 -8.18501e-006
486
root  -67.719 41.1555 0.624838 177.258 -0.625168 178.14
RightUpLeg  2.4836 -10.6003 -9.17753
RightLeg  13.3045 -0.0662265 0.321384
RightFoot  -8.66733 -0.145667 3.78012
RightToes  0.000482159 0.542163 -0.142577
Spine  9.42092 1.49871 -1.32667
Spine1  2.42442 1.28812 0.50406
HEad  -7.0141 33.6125 -5.32037
LeftShoulder1  0.747714 -1.51975 -7.21298
LeftArm  -25.2116 12.06 -5.07127
LeftForeArm  12.2093 -12.76 -0.805286
LeftHand  -0.25398 0.0180481 5.50724
RightShoulder  0.459282 0.0196743 5.25307
RightArm  -21.1931 -10.8818 5.6946
RightForeArm  -27.7189 3.48213 4.053
RightHand  -6.56475 17.0513 -33.4536
LeftUpLeg  5.32517 4.03697 -1.72218
LeftLeg  7.15511 11.23 -3.09795
LeftFoot  -8.91294 -0.013727 3.17781
LeftToes  1.06247e-005 4.65854e-005 -8.18501e-006
